<svg width="3951" height="4199" xmlns="http://www.w3.org/2000/svg" xmlns:xlink="http://www.w3.org/1999/xlink" overflow="hidden"><defs><clipPath id="clip0"><rect x="-155" y="-463" width="3951" height="4199"/></clipPath><clipPath id="clip1"><rect x="1876" y="1766" width="1919" height="1969"/></clipPath><clipPath id="clip2"><rect x="1876" y="1766" width="1919" height="1969"/></clipPath><clipPath id="clip3"><rect x="1876" y="1766" width="1919" height="1969"/></clipPath></defs><g clip-path="url(#clip0)" transform="translate(155 463)"><path d="M262 12.6945 262 3489 2885.53 3489C2886.69 2511.76 2887.84 1534.53 2889 557.29L2326.38 10 262 12.6945Z" fill="#F4FFF7" fill-rule="evenodd"/><path d="M2329 565 2329 6 2897 565Z" fill="#C6E0CE" fill-rule="evenodd"/><path d="M920 2470.83C920 2454.36 933.357 2441 949.834 2441L2084.17 2441C2100.64 2441 2114 2454.36 2114 2470.83L2114 2590.17C2114 2606.64 2100.64 2620 2084.17 2620L949.834 2620C933.357 2620 920 2606.64 920 2590.17Z" fill="#006794" fill-rule="evenodd"/><path d="M482 2001.17C482 1986.72 493.716 1975 508.168 1975L2372.83 1975C2387.28 1975 2399 1986.72 2399 2001.17L2399 2105.83C2399 2120.28 2387.28 2132 2372.83 2132L508.168 2132C493.716 2132 482 2120.28 482 2105.83Z" fill="#006794" fill-rule="evenodd"/><path d="M479 1538.83C479 1522.36 492.357 1509 508.834 1509L2688.17 1509C2704.64 1509 2718 1522.36 2718 1538.83L2718 1658.17C2718 1674.64 2704.64 1688 2688.17 1688L508.834 1688C492.357 1688 479 1674.64 479 1658.17Z" fill="#006794" fill-rule="evenodd"/><path d="M479 1110.83C479 1095.46 491.462 1083 506.834 1083L2294.17 1083C2309.54 1083 2322 1095.46 2322 1110.83L2322 1222.17C2322 1237.54 2309.54 1250 2294.17 1250L506.834 1250C491.462 1250 479 1237.54 479 1222.17Z" fill="#006794" fill-rule="evenodd"/><path d="M1254 684.001C1254 668.536 1266.54 656 1282 656L2690 656C2705.46 656 2718 668.536 2718 684.001L2718 795.999C2718 811.464 2705.46 824 2690 824L1282 824C1266.54 824 1254 811.464 1254 795.999Z" fill="#006794" fill-rule="evenodd"/><path d="M479 2935.83C479 2919.36 492.357 2906 508.834 2906L2084.17 2906C2100.64 2906 2114 2919.36 2114 2935.83L2114 3055.17C2114 3071.64 2100.64 3085 2084.17 3085L508.834 3085C492.357 3085 479 3071.64 479 3055.17Z" fill="#006794" fill-rule="evenodd"/><text fill="#006794" font-family="Calibri,Calibri_MSFontService,sans-serif" font-weight="700" font-size="1133" transform="translate(525.947 939)">?</text><path d="M2461 1110.83C2461 1095.46 2473.46 1083 2488.83 1083L2690.17 1083C2705.54 1083 2718 1095.46 2718 1110.83L2718 1222.17C2718 1237.54 2705.54 1250 2690.17 1250L2488.83 1250C2473.46 1250 2461 1237.54 2461 1222.17Z" fill="#006794" fill-rule="evenodd"/><path d="M509 2470.83C509 2454.36 522.357 2441 538.834 2441L759.166 2441C775.643 2441 789 2454.36 789 2470.83L789 2590.17C789 2606.64 775.643 2620 759.166 2620L538.834 2620C522.357 2620 509 2606.64 509 2590.17Z" fill="#006794" fill-rule="evenodd"/><g clip-path="url(#clip1)"><g clip-path="url(#clip2)"><g clip-path="url(#clip3)"><path d="M1698.23 679.292 709.26 679.292 1078.88 597.377C1132.82 585.39 1166.78 531.446 1154.8 477.502 1142.81 423.558 1088.86 389.594 1034.92 401.581L495.483 521.456C475.504 527.45 455.525 539.438 439.542 559.417L269.719 779.188 119.875 779.188 119.875 1358.58 219.771 1358.58C361.623 1358.58 371.612 1518.42 639.333 1518.42 703.267 1518.42 915.046 1518.42 998.958 1518.42 1064.89 1518.42 1118.83 1464.47 1118.83 1398.54 1118.83 1366.57 1106.85 1338.6 1086.87 1318.63 1090.86 1318.63 1094.86 1318.63 1098.85 1318.63 1164.79 1318.63 1218.73 1264.68 1218.73 1198.75 1218.73 1166.78 1206.74 1136.81 1184.76 1114.84 1238.71 1102.85 1278.67 1054.9 1278.67 998.958 1278.67 933.027 1224.72 879.083 1158.79 879.083L1698.23 879.083C1754.17 879.083 1798.13 835.129 1798.13 779.188 1798.13 723.246 1754.17 679.292 1698.23 679.292Z" fill="#006794" transform="matrix(-1.88486e-16 -1.02607 1 -1.83697e-16 1877 3735)"/></g></g></g></g></svg>