<svg width="758" height="758" xmlns="http://www.w3.org/2000/svg" xmlns:xlink="http://www.w3.org/1999/xlink" overflow="hidden"><defs><clipPath id="clip0"><rect x="261" y="-19" width="758" height="758"/></clipPath></defs><g clip-path="url(#clip0)" transform="translate(-261 19)"><path d="M262 360C262 151.236 431.236-18 640-18 848.764-18 1018 151.236 1018 360 1018 568.764 848.764 738 640 738 431.236 738 262 568.764 262 360Z" fill="#006794" fill-rule="evenodd"/><path d="M490 221.5C490 138.933 557.157 72 640 72 722.843 72 790 138.933 790 221.5 790 304.067 722.843 371 640 371 557.157 371 490 304.067 490 221.5Z" fill="#F4FFF7" fill-rule="evenodd"/><path d="M381 495.551C398.569 427.851 513.729 366.505 539.513 381.196 580.516 407.562 609.616 418.12 645.497 418.12 681.378 418.12 716.822 399.632 742.664 380.246 779.076 378.386 865.285 417.712 899 491.294 880.959 555.528 755.442 643.572 653.889 647.811 552.337 652.051 417.831 584.362 381 495.551Z" fill="#F4FFF7" fill-rule="evenodd"/></g></svg>