<svg width="736" height="810" xmlns="http://www.w3.org/2000/svg" xmlns:xlink="http://www.w3.org/1999/xlink" overflow="hidden"><defs><clipPath id="clip0"><rect x="55" y="-24" width="736" height="810"/></clipPath></defs><g clip-path="url(#clip0)" transform="translate(-55 24)"><rect x="56" y="-23" width="582" height="771" fill="#F4FFF7"/><path d="M202 522.5C202 518.91 204.91 516 208.5 516L460.5 516C464.09 516 467 518.91 467 522.5L467 548.5C467 552.09 464.09 555 460.5 555L208.5 555C204.91 555 202 552.09 202 548.5Z" fill="#006794" fill-rule="evenodd"/><path d="M105 417.833C105 414.612 107.612 412 110.833 412L373.167 412C376.388 412 379 414.612 379 417.833L379 441.167C379 444.388 376.388 447 373.167 447L110.833 447C107.612 447 105 444.388 105 441.167Z" fill="#006794" fill-rule="evenodd"/><path d="M104 315.667C104 311.985 106.985 309 110.666 309L593.333 309C597.015 309 600 311.985 600 315.667L600 342.333C600 346.015 597.015 349 593.333 349L110.666 349C106.985 349 104 346.015 104 342.333Z" fill="#006794" fill-rule="evenodd"/><path d="M104 220.334C104 216.836 106.836 214 110.334 214L506.666 214C510.164 214 513 216.836 513 220.334L513 245.666C513 249.164 510.164 252 506.666 252L110.334 252C106.836 252 104 249.164 104 245.666Z" fill="#006794" fill-rule="evenodd"/><path d="M276 126.167C276 122.761 278.761 120 282.167 120L593.833 120C597.239 120 600 122.761 600 126.167L600 150.833C600 154.239 597.239 157 593.833 157L282.167 157C278.761 157 276 154.239 276 150.833Z" fill="#006794" fill-rule="evenodd"/><path d="M104 624.667C104 620.985 106.985 618 110.667 618L460.333 618C464.015 618 467 620.985 467 624.667L467 651.333C467 655.015 464.015 658 460.333 658L110.667 658C106.985 658 104 655.015 104 651.333Z" fill="#006794" fill-rule="evenodd"/><path d="M543 220.333C543 216.836 545.836 214 549.333 214L593.667 214C597.164 214 600 216.836 600 220.333L600 245.666C600 249.164 597.164 252 593.667 252L549.333 252C545.836 252 543 249.164 543 245.666Z" fill="#006794" fill-rule="evenodd"/><path d="M111 522.5C111 518.91 113.91 516 117.5 516L166.5 516C170.09 516 173 518.91 173 522.5L173 548.5C173 552.09 170.09 555 166.5 555L117.5 555C113.91 555 111 552.09 111 548.5Z" fill="#006794" fill-rule="evenodd"/><path d="M488 638.5C488 557.038 555.605 491 639 491 722.395 491 790 557.038 790 638.5 790 719.962 722.395 786 639 786 555.605 786 488 719.962 488 638.5Z" fill="#006794" fill-rule="evenodd"/><path d="M710.198 580.83C711.637 579.391 713.971 579.391 715.41 580.83L725.833 591.253C727.272 592.692 727.272 595.026 725.833 596.465L615.664 706.633C614.225 708.072 611.892 708.072 610.453 706.633L600.03 696.21C598.591 694.771 598.591 692.438 600.03 690.998Z" fill="#F4FFF7" fill-rule="evenodd"/><path d="M559 651C559 644.925 564.149 640 570.5 640 576.851 640 582 644.925 582 651 582 657.075 576.851 662 570.5 662 564.149 662 559 657.075 559 651Z" fill="#F4FFF7" fill-rule="evenodd"/><path d="M562.422 658.713C560.951 657.242 560.951 654.857 562.422 653.386L573.075 642.733C574.546 641.262 576.931 641.262 578.402 642.733L625.191 689.522C626.662 690.993 626.661 693.378 625.191 694.849L614.537 705.502C613.066 706.973 610.682 706.973 609.211 705.502Z" fill="#F4FFF7" fill-rule="evenodd"/><path d="M706 590C706 583.925 711.149 579 717.5 579 723.851 579 729 583.925 729 590 729 596.075 723.851 601 717.5 601 711.149 601 706 596.075 706 590Z" fill="#F4FFF7" fill-rule="evenodd"/><path d="M415 417.833C415 414.612 417.612 412 420.833 412L594.167 412C597.388 412 600 414.612 600 417.833L600 441.167C600 444.388 597.388 447 594.167 447L420.833 447C417.612 447 415 444.388 415 441.167Z" fill="#006794" fill-rule="evenodd"/><path d="M104 126.167C104 122.761 106.761 120 110.167 120L231.833 120C235.239 120 238 122.761 238 126.167L238 150.833C238 154.239 235.239 157 231.833 157L110.167 157C106.761 157 104 154.239 104 150.833Z" fill="#006794" fill-rule="evenodd"/><path d="M104 46.1669C104 42.761 106.761 40 110.167 40L593.833 40C597.239 40 600 42.761 600 46.1669L600 70.8331C600 74.239 597.239 77 593.833 77L110.167 77C106.761 77 104 74.239 104 70.8331Z" fill="#006794" fill-rule="evenodd"/></g></svg>